<!DOCTYPE svg PUBLIC "-//W3C//DTD SVG 1.1//EN" "http://www.w3.org/Graphics/SVG/1.1/DTD/svg11.dtd">
<svg xmlns="http://www.w3.org/2000/svg" viewBox="0 0 178 172">
<path fill="#f4f3fb" stroke="#f4f3fb" d="M74.197 6.465C20.85 18.574-5.511 75.26 19.815 123.407c17.364 33.013 56.502 49.55 92.544 39.106 59.079-17.121 78.389-90.969 34.976-133.765-10.421-10.273-19.294-15.739-33.048-20.36-9.762-3.279-29.865-4.244-40.09-1.923m-.995 15.499C28.286 34.088 9.991 88.32 38.274 125.5c28.938 38.04 89.491 32.255 110.605-10.565 17.849-36.201-.106-79.855-37.879-92.094-9.58-3.104-27.967-3.53-37.798-.877M49.274 52.093C38.151 57.599 38.285 73.571 49.5 79c17.726 8.581 30.683-16.469 13.804-26.687-4.722-2.858-8.577-2.919-14.03-.22m67.711.157c-11.645 5.902-10.776 22.609 1.418 27.266 17.667 6.747 29.114-17.388 12.901-27.203-4.794-2.902-8.684-2.919-14.319-.063" fill-rule="evenodd"/>
<path fill="#fb4c07" stroke="#fb4c07" d="M77.5 6.078C-6.1 22.658-13.061 137.024 68 162.155c11.006 3.412 34.097 3.414 44.957.003C183.616 139.97 190.969 44.942 124.5 12.983c-13.875-6.671-33.581-9.567-47-6.905m2.075 13.916c-14.384 2.601-25.213 8.429-36.185 19.473C1.919 81.211 31.943 151.794 91 151.391c58.056-.397 87.108-71.081 46.175-112.344-15.021-15.142-37.716-22.65-57.6-19.053m41.548 31.082c-9.859 2.113-15.152 13.444-10.128 21.683 6.1 10.005 21.058 9.561 26.253-.779 5.439-10.824-4.293-23.44-16.125-20.904m-72.819 1.88c-12.79 7.799-6.887 27.037 8.298 27.042C64.046 80.001 70.997 73 70.997 65.5c0-10.971-13.255-18.298-22.693-12.544" fill-rule="evenodd"/>
<path fill="#ea152a" stroke="#ea152a" d="M81.315 6.123c-8.957.804-22.433 4.998-29.653 9.229l-4.538 2.66 4.925 4.847 4.925 4.848 4.763-2.343C97.575 7.737 141.993 27.746 154.162 67c4.779 15.417 2.627 35.644-5.305 49.85-3.336 5.975-3.618 4.95 3.453 12.552 3.178 3.416 2.647 3.8 8.153-5.902 7.151-12.602 8.969-20.172 9.005-37.5.028-13.513-.268-16.462-2.311-23-11.976-38.334-45.432-60.501-85.842-56.877m35.142 46.74c-6.517 3.974-9.129 12.797-5.666 19.137 7.459 13.652 27.687 8.668 27.454-6.765-.161-10.65-12.822-17.839-21.788-12.372" fill-rule="evenodd"/>
</svg>